<svg width="603" height="864" viewBox="0 0 603 864" fill="none" xmlns="http://www.w3.org/2000/svg">
<path d="M601.884 833.172C527.686 834.366 454.048 825.159 385.174 806.079C316.3 786.999 253.539 758.419 200.475 721.971C147.411 685.522 105.084 641.919 75.9094 593.652C46.7353 545.385 31.2861 493.399 30.4439 440.663C26.8851 218.869 276.943 35.0071 588.997 30" stroke="#553862" stroke-width="60" stroke-miterlimit="10"/>
<path d="M600.429 742.492C484.047 744.359 371.906 713.394 288.676 656.408C205.446 599.423 157.945 521.085 156.622 438.627C155.299 356.17 200.262 276.348 281.621 216.722C362.98 157.095 474.07 122.548 590.452 120.681" stroke="#3C1F49" stroke-width="60" stroke-miterlimit="10"/>
<path d="M599.038 655.797C515.377 657.139 434.763 634.805 374.931 593.706C315.099 552.608 280.95 496.112 279.996 436.648C279.042 377.183 311.361 319.621 369.844 276.624C428.326 233.628 508.182 208.718 591.843 207.376" stroke="#785A86" stroke-width="60" stroke-miterlimit="10"/>
<path d="M594.536 301.411C555.875 302.197 519.11 317.958 492.327 345.225C465.545 372.493 450.939 409.033 451.724 446.809C452.508 484.585 468.619 520.501 496.511 546.656C524.403 572.812 561.792 587.064 600.452 586.278L597.494 443.845L594.536 301.411Z" fill="black"/>
</svg>
